<mxfile host="65bd71144e">
    <diagram id="_X64QTZvnersegPbVP8m" name="Page-1">
        <mxGraphModel dx="1801" dy="437" grid="1" gridSize="10" guides="1" tooltips="1" connect="1" arrows="1" fold="1" page="1" pageScale="1" pageWidth="850" pageHeight="1100" math="0" shadow="0">
            <root>
                <mxCell id="0"/>
                <mxCell id="1" parent="0"/>
                <mxCell id="2" value="" style="swimlane;startSize=0;" vertex="1" parent="1">
                    <mxGeometry x="-10" y="80" width="1020" height="600" as="geometry"/>
                </mxCell>
                <mxCell id="5" value="Settings Container" style="rounded=0;whiteSpace=wrap;html=1;verticalAlign=top;" vertex="1" parent="2">
                    <mxGeometry y="60" width="330" height="390" as="geometry"/>
                </mxCell>
                <mxCell id="35" value="Convert Control Container" style="rounded=0;whiteSpace=wrap;html=1;verticalAlign=top;" vertex="1" parent="2">
                    <mxGeometry x="330" y="60" width="180" height="200" as="geometry"/>
                </mxCell>
                <mxCell id="3" value="Navbar" style="rounded=0;whiteSpace=wrap;html=1;" vertex="1" parent="2">
                    <mxGeometry width="1020" height="60" as="geometry"/>
                </mxCell>
                <mxCell id="4" value="Lower Info Container (Only for selected file)" style="rounded=0;whiteSpace=wrap;html=1;verticalAlign=top;" vertex="1" parent="2">
                    <mxGeometry y="450" width="510" height="150" as="geometry"/>
                </mxCell>
                <mxCell id="6" value="File Browser (Default to Root/Convert)" style="rounded=0;whiteSpace=wrap;html=1;verticalAlign=top;" vertex="1" parent="2">
                    <mxGeometry x="510" y="60" width="510" height="390" as="geometry"/>
                </mxCell>
                <mxCell id="8" value="Browse For Single File" style="rounded=1;whiteSpace=wrap;html=1;" vertex="1" parent="2">
                    <mxGeometry x="530" y="400" width="100" height="40" as="geometry"/>
                </mxCell>
                <mxCell id="15" value="Convert Selected File" style="rounded=1;whiteSpace=wrap;html=1;" vertex="1" parent="2">
                    <mxGeometry x="370" y="95" width="100" height="40" as="geometry"/>
                </mxCell>
                <mxCell id="16" value="Convert All Files (In Browser)&amp;nbsp;" style="rounded=1;whiteSpace=wrap;html=1;" vertex="1" parent="2">
                    <mxGeometry x="370" y="170" width="100" height="40" as="geometry"/>
                </mxCell>
                <mxCell id="14" value="Bitrate:&amp;nbsp;" style="shape=parallelogram;perimeter=parallelogramPerimeter;whiteSpace=wrap;html=1;fixedSize=1;" vertex="1" parent="2">
                    <mxGeometry x="210" y="550" width="120" height="30" as="geometry"/>
                </mxCell>
                <mxCell id="18" value="New File Type" style="shape=parallelogram;perimeter=parallelogramPerimeter;whiteSpace=wrap;html=1;fixedSize=1;" vertex="1" parent="2">
                    <mxGeometry x="20" y="85" width="120" height="30" as="geometry"/>
                </mxCell>
                <mxCell id="19" value="New Bitrate" style="shape=parallelogram;perimeter=parallelogramPerimeter;whiteSpace=wrap;html=1;fixedSize=1;" vertex="1" parent="2">
                    <mxGeometry x="20" y="135" width="120" height="30" as="geometry"/>
                </mxCell>
                <mxCell id="24" value="default: mp3" style="ellipse;whiteSpace=wrap;html=1;" vertex="1" parent="2">
                    <mxGeometry x="180" y="80" width="100" height="40" as="geometry"/>
                </mxCell>
                <mxCell id="25" value="default: blank (no change)" style="ellipse;whiteSpace=wrap;html=1;fontSize=11;" vertex="1" parent="2">
                    <mxGeometry x="180" y="130" width="100" height="40" as="geometry"/>
                </mxCell>
                <mxCell id="27" value="Trim Audio" style="shape=parallelogram;perimeter=parallelogramPerimeter;whiteSpace=wrap;html=1;fixedSize=1;" vertex="1" parent="2">
                    <mxGeometry x="20" y="190" width="120" height="30" as="geometry"/>
                </mxCell>
                <mxCell id="29" value="New File Name" style="shape=parallelogram;perimeter=parallelogramPerimeter;whiteSpace=wrap;html=1;fixedSize=1;" vertex="1" parent="2">
                    <mxGeometry x="20" y="250" width="120" height="30" as="geometry"/>
                </mxCell>
                <mxCell id="32" value="Dropdown (Default yes)" style="ellipse;whiteSpace=wrap;html=1;" vertex="1" parent="2">
                    <mxGeometry x="180" y="290" width="100" height="40" as="geometry"/>
                </mxCell>
                <mxCell id="31" value="&lt;font style=&quot;font-size: 9px;&quot;&gt;Include thumbnail in converted file&lt;/font&gt;" style="shape=parallelogram;perimeter=parallelogramPerimeter;whiteSpace=wrap;html=1;fixedSize=1;" vertex="1" parent="2">
                    <mxGeometry x="20" y="300" width="120" height="30" as="geometry"/>
                </mxCell>
                <mxCell id="33" value="placeholder" style="ellipse;whiteSpace=wrap;html=1;" vertex="1" parent="2">
                    <mxGeometry x="180" y="345" width="100" height="40" as="geometry"/>
                </mxCell>
                <mxCell id="34" value="placeholder" style="shape=parallelogram;perimeter=parallelogramPerimeter;whiteSpace=wrap;html=1;fixedSize=1;" vertex="1" parent="2">
                    <mxGeometry x="20" y="350" width="120" height="30" as="geometry"/>
                </mxCell>
                <mxCell id="36" value="Toggle Settings Container" style="rounded=0;whiteSpace=wrap;html=1;verticalAlign=top;" vertex="1" parent="2">
                    <mxGeometry x="330" y="260" width="180" height="190" as="geometry"/>
                </mxCell>
                <mxCell id="37" value="&lt;font style=&quot;font-size: 7px;&quot;&gt;Put converted file in music/new (on/off)&lt;/font&gt;" style="rounded=1;whiteSpace=wrap;html=1;" vertex="1" parent="2">
                    <mxGeometry x="340" y="285" width="75" height="35" as="geometry"/>
                </mxCell>
                <mxCell id="38" value="&lt;font style=&quot;font-size: 5px;&quot;&gt;delete pre converted file on successful conversion (on/off)&lt;/font&gt;" style="rounded=1;whiteSpace=wrap;html=1;" vertex="1" parent="2">
                    <mxGeometry x="425" y="285" width="75" height="35" as="geometry"/>
                </mxCell>
                <mxCell id="40" value="Has Thumbnail:&amp;nbsp;" style="shape=parallelogram;perimeter=parallelogramPerimeter;whiteSpace=wrap;html=1;fixedSize=1;" vertex="1" parent="2">
                    <mxGeometry x="220" y="500" width="120" height="30" as="geometry"/>
                </mxCell>
                <mxCell id="42" value="Length:&amp;nbsp;" style="shape=parallelogram;perimeter=parallelogramPerimeter;whiteSpace=wrap;html=1;fixedSize=1;" vertex="1" parent="2">
                    <mxGeometry x="360" y="550" width="120" height="30" as="geometry"/>
                </mxCell>
                <mxCell id="39" value="default: 0 (no change)&amp;nbsp;" style="shape=hexagon;perimeter=hexagonPerimeter2;whiteSpace=wrap;html=1;fixedSize=1;" vertex="1" parent="2">
                    <mxGeometry x="170" y="185" width="120" height="40" as="geometry"/>
                </mxCell>
                <mxCell id="43" value="default: blank (no change)&amp;nbsp;" style="shape=hexagon;perimeter=hexagonPerimeter2;whiteSpace=wrap;html=1;fixedSize=1;" vertex="1" parent="2">
                    <mxGeometry x="170" y="240" width="120" height="40" as="geometry"/>
                </mxCell>
                <mxCell id="44" value="Info Log:&lt;div&gt;-Display possible errors from backend&lt;/div&gt;&lt;div&gt;- Displays Completion of conversion&lt;/div&gt;" style="rounded=0;whiteSpace=wrap;html=1;verticalAlign=middle;" vertex="1" parent="2">
                    <mxGeometry x="510" y="450" width="510" height="150" as="geometry"/>
                </mxCell>
                <mxCell id="47" value="Date Modified" style="shape=parallelogram;perimeter=parallelogramPerimeter;whiteSpace=wrap;html=1;fixedSize=1;" vertex="1" parent="2">
                    <mxGeometry x="30" y="500" width="120" height="30" as="geometry"/>
                </mxCell>
                <mxCell id="49" value="Metadata Specific" style="text;html=1;align=left;verticalAlign=middle;resizable=0;points=[];autosize=1;strokeColor=none;fillColor=none;labelBackgroundColor=light-dark(#FFFFFF,#FF7011);" vertex="1" parent="2">
                    <mxGeometry x="305" y="470" width="120" height="30" as="geometry"/>
                </mxCell>
                <mxCell id="50" value="OS Specific" style="text;html=1;align=left;verticalAlign=middle;resizable=0;points=[];autosize=1;strokeColor=none;fillColor=none;labelBackgroundColor=light-dark(#FFFFFF,#FF7011);" vertex="1" parent="2">
                    <mxGeometry x="60" y="470" width="90" height="30" as="geometry"/>
                </mxCell>
                <mxCell id="51" value="File Name" style="shape=parallelogram;perimeter=parallelogramPerimeter;whiteSpace=wrap;html=1;fixedSize=1;" vertex="1" parent="2">
                    <mxGeometry x="20" y="550" width="120" height="30" as="geometry"/>
                </mxCell>
                <mxCell id="13" value="File Type" style="shape=parallelogram;perimeter=parallelogramPerimeter;whiteSpace=wrap;html=1;fixedSize=1;" vertex="1" parent="2">
                    <mxGeometry x="370" y="500" width="120" height="30" as="geometry"/>
                </mxCell>
                <mxCell id="52" value="Custom Command" style="shape=parallelogram;perimeter=parallelogramPerimeter;whiteSpace=wrap;html=1;fixedSize=1;fontSize=11;" vertex="1" parent="2">
                    <mxGeometry x="20" y="400" width="120" height="30" as="geometry"/>
                </mxCell>
                <mxCell id="53" value="default: blank (if not blank, overrides all other settings above)&amp;nbsp;" style="shape=hexagon;perimeter=hexagonPerimeter2;whiteSpace=wrap;html=1;fixedSize=1;fontSize=8;" vertex="1" parent="2">
                    <mxGeometry x="170" y="395" width="120" height="40" as="geometry"/>
                </mxCell>
                <mxCell id="9" value="Button" style="rounded=1;whiteSpace=wrap;html=1;" vertex="1" parent="1">
                    <mxGeometry x="-220" y="80" width="120" height="60" as="geometry"/>
                </mxCell>
                <mxCell id="10" value="Container" style="rounded=0;whiteSpace=wrap;html=1;" vertex="1" parent="1">
                    <mxGeometry x="-220" y="160" width="120" height="60" as="geometry"/>
                </mxCell>
                <mxCell id="12" value="Label" style="shape=parallelogram;perimeter=parallelogramPerimeter;whiteSpace=wrap;html=1;fixedSize=1;" vertex="1" parent="1">
                    <mxGeometry x="-220" y="240" width="120" height="60" as="geometry"/>
                </mxCell>
                <mxCell id="23" value="Dropdown" style="ellipse;whiteSpace=wrap;html=1;" vertex="1" parent="1">
                    <mxGeometry x="-220" y="320" width="120" height="50" as="geometry"/>
                </mxCell>
                <mxCell id="46" value="Notes:&amp;nbsp;&lt;div&gt;- Buttons and drop downs and text fields should be greyed out and locked until a error message or a completion message is recieved after either &#39;convert&#39; buttons are pressed&lt;/div&gt;" style="text;html=1;align=left;verticalAlign=middle;resizable=0;points=[];autosize=1;strokeColor=none;fillColor=none;" vertex="1" parent="1">
                    <mxGeometry x="-10" y="690" width="950" height="40" as="geometry"/>
                </mxCell>
                <mxCell id="48" value="Raw Notes" style="text;html=1;align=left;verticalAlign=middle;resizable=0;points=[];autosize=1;strokeColor=none;fillColor=none;labelBackgroundColor=light-dark(#FFFFFF,#FF0A0A);" vertex="1" parent="1">
                    <mxGeometry x="-200" y="400" width="80" height="30" as="geometry"/>
                </mxCell>
            </root>
        </mxGraphModel>
    </diagram>
</mxfile>